#Comment line ignore any data following # character 
#Hierarchical Translation and Rotation (.htr) file 
[Header]	
#Header keywords are followed by a single value 
FileType HTR		#Single word string
DataType HTRS		#Translation followed by rotation and scale data
FileVersion 1		#integer
NumSegments 84		#integer
NumFrames 2		#integer
DataFrameRate 30		#integer, data frame rate in this file
EulerRotationOrder ZYX
CalibrationUnits mm
RotationUnits Degrees
GlobalAxisofGravity Y
BoneLengthAxis Y
ScaleFactor 1.00
[SegmentNames&Hierarchy]
#CHILD	PARENT
MASTER GLOBAL
root MASTER
chest root
L_mid_tent01 root
R_mid_tent01 root
spine01 root
Bip01_Neck chest
L_humerus chest
R_humerus chest
weapon_bone chest
Bip01_Head Bip01_Neck
eye_left_bone Bip01_Head
eye_right_bone Bip01_Head
L_forearm L_humerus
L_front_hand L_forearm
L_weapon_bone L_forearm
L_front_hand01_01 L_front_hand
L_front_hand02_01 L_front_hand
L_front_hand03_01 L_front_hand
L_front_hand01_02 L_front_hand01_01
L_front_hand02_02 L_front_hand02_01
L_front_hand03_02 L_front_hand03_01
R_forearm R_humerus
R_front_hand R_forearm
R_weapon_bone R_forearm
R_front_hand01_01 R_front_hand
R_front_hand02_01 R_front_hand
R_front_hand03_01 R_front_hand
R_front_hand01_02 R_front_hand01_01
R_front_hand02_02 R_front_hand02_01
R_front_hand03_02 R_front_hand03_01
null_rope01_connect L_mid_tent01
Rope1_Seg01 null_rope01_connect
Rope1_Seg02 Rope1_Seg01
Rope1_Seg03 Rope1_Seg02
Rope1_Seg04 Rope1_Seg03
Rope1_Seg05 Rope1_Seg04
Rope1_Seg06 Rope1_Seg05
Rope1_Seg07 Rope1_Seg06
Rope1_Seg09 Rope1_Seg07
L_mid_hand01 Rope1_Seg09
L_mid_hand02 Rope1_Seg09
L_mid_hand03 Rope1_Seg09
null_rope02_connect R_mid_tent01
Rope2_Seg01 null_rope02_connect
Rope2_Seg02 Rope2_Seg01
Rope2_Seg03 Rope2_Seg02
Rope2_Seg04 Rope2_Seg03
Rope2_Seg05 Rope2_Seg04
Rope2_Seg06 Rope2_Seg05
Rope2_Seg07 Rope2_Seg06
Rope2_Seg09 Rope2_Seg07
R_mid_hand01 Rope2_Seg09
R_mid_hand02 Rope2_Seg09
R_mid_hand03 Rope2_Seg09
spine02 spine01
spine03 spine02
pelvis spine03
null_rope03_connect pelvis
null_rope04_connect pelvis
Rope3_Seg01 null_rope03_connect
Rope3_Seg02 Rope3_Seg01
Rope3_Seg03 Rope3_Seg02
Rope3_Seg04 Rope3_Seg03
Rope3_Seg05 Rope3_Seg04
Rope3_Seg06 Rope3_Seg05
Rope3_Seg07 Rope3_Seg06
Rope3_Seg08 Rope3_Seg07
Rope3_Seg09 Rope3_Seg08
R_rear_hand01 Rope3_Seg09
R_rear_hand02 Rope3_Seg09
R_rear_hand03 Rope3_Seg09
Rope4_Seg01 null_rope04_connect
Rope4_Seg02 Rope4_Seg01
Rope4_Seg03 Rope4_Seg02
Rope4_Seg04 Rope4_Seg03
Rope4_Seg05 Rope4_Seg04
Rope4_Seg06 Rope4_Seg05
Rope4_Seg07 Rope4_Seg06
Rope4_Seg08 Rope4_Seg07
Rope4_Seg09 Rope4_Seg08
L_rear_hand01 Rope4_Seg09
L_rear_hand02 Rope4_Seg09
L_rear_hand03 Rope4_Seg09
[BasePosition]
#SegmentName Tx, Ty, Tz, Rx, Ry, Rz, BoneLength
MASTER 0.000000 0.000000 0.000000 -90.000000 0.000000 0.000000 10.000000 
root 0.000000 0.000000 0.000000 0.000000 0.000000 0.000000 10.000000 
chest 0.000000 0.000000 0.000000 0.000000 0.000000 0.000000 10.000000 
L_mid_tent01 0.000000 0.000000 0.000000 0.000000 0.000000 0.000000 10.000000 
R_mid_tent01 0.000000 0.000000 0.000000 0.000000 0.000000 0.000000 10.000000 
spine01 0.000000 0.000000 0.000000 0.000000 0.000000 0.000000 10.000000 
Bip01_Neck 0.000000 0.000000 0.000000 0.000000 0.000000 0.000000 10.000000 
L_humerus 0.000000 0.000000 0.000000 0.000000 0.000000 0.000000 10.000000 
R_humerus 0.000000 0.000000 0.000000 0.000000 0.000000 0.000000 10.000000 
weapon_bone 0.000000 0.000000 0.000000 0.000000 0.000000 0.000000 10.000000 
Bip01_Head 0.000000 0.000000 0.000000 0.000000 0.000000 0.000000 10.000000 
eye_left_bone 0.000000 0.000000 0.000000 0.000000 0.000000 0.000000 10.000000 
eye_right_bone 0.000000 0.000000 0.000000 0.000000 0.000000 0.000000 10.000000 
L_forearm 0.000000 0.000000 0.000000 0.000000 0.000000 0.000000 10.000000 
L_front_hand 0.000000 0.000000 0.000000 0.000000 0.000000 0.000000 10.000000 
L_weapon_bone 0.000000 0.000000 0.000000 0.000000 0.000000 0.000000 10.000000 
L_front_hand01_01 0.000000 0.000000 0.000000 0.000000 0.000000 0.000000 10.000000 
L_front_hand02_01 0.000000 0.000000 0.000000 0.000000 0.000000 0.000000 10.000000 
L_front_hand03_01 0.000000 0.000000 0.000000 0.000000 0.000000 0.000000 10.000000 
L_front_hand01_02 0.000000 0.000000 0.000000 0.000000 0.000000 0.000000 10.000000 
L_front_hand02_02 0.000000 0.000000 0.000000 0.000000 0.000000 0.000000 10.000000 
L_front_hand03_02 0.000000 0.000000 0.000000 0.000000 0.000000 0.000000 10.000000 
R_forearm 0.000000 0.000000 0.000000 0.000000 0.000000 0.000000 10.000000 
R_front_hand 0.000000 0.000000 0.000000 0.000000 0.000000 0.000000 10.000000 
R_weapon_bone 0.000000 0.000000 0.000000 0.000000 0.000000 0.000000 10.000000 
R_front_hand01_01 0.000000 0.000000 0.000000 0.000000 0.000000 0.000000 10.000000 
R_front_hand02_01 0.000000 0.000000 0.000000 0.000000 0.000000 0.000000 10.000000 
R_front_hand03_01 0.000000 0.000000 0.000000 0.000000 0.000000 0.000000 10.000000 
R_front_hand01_02 0.000000 0.000000 0.000000 0.000000 0.000000 0.000000 10.000000 
R_front_hand02_02 0.000000 0.000000 0.000000 0.000000 0.000000 0.000000 10.000000 
R_front_hand03_02 0.000000 0.000000 0.000000 0.000000 0.000000 0.000000 10.000000 
null_rope01_connect 0.000000 0.000000 0.000000 0.000000 0.000000 0.000000 10.000000 
Rope1_Seg01 0.000000 0.000000 0.000000 0.000000 0.000000 0.000000 10.000000 
Rope1_Seg02 0.000000 0.000000 0.000000 0.000000 0.000000 0.000000 10.000000 
Rope1_Seg03 0.000000 0.000000 0.000000 0.000000 0.000000 0.000000 10.000000 
Rope1_Seg04 0.000000 0.000000 0.000000 0.000000 0.000000 0.000000 10.000000 
Rope1_Seg05 0.000000 0.000000 0.000000 0.000000 0.000000 0.000000 10.000000 
Rope1_Seg06 0.000000 0.000000 0.000000 0.000000 0.000000 0.000000 10.000000 
Rope1_Seg07 0.000000 0.000000 0.000000 0.000000 0.000000 0.000000 10.000000 
Rope1_Seg09 0.000000 0.000000 0.000000 0.000000 0.000000 0.000000 10.000000 
L_mid_hand01 0.000000 0.000000 0.000000 0.000000 0.000000 0.000000 10.000000 
L_mid_hand02 0.000000 0.000000 0.000000 0.000000 0.000000 0.000000 10.000000 
L_mid_hand03 0.000000 0.000000 0.000000 0.000000 0.000000 0.000000 10.000000 
null_rope02_connect 0.000000 0.000000 0.000000 0.000000 0.000000 0.000000 10.000000 
Rope2_Seg01 0.000000 0.000000 0.000000 0.000000 0.000000 0.000000 10.000000 
Rope2_Seg02 0.000000 0.000000 0.000000 0.000000 0.000000 0.000000 10.000000 
Rope2_Seg03 0.000000 0.000000 0.000000 0.000000 0.000000 0.000000 10.000000 
Rope2_Seg04 0.000000 0.000000 0.000000 0.000000 0.000000 0.000000 10.000000 
Rope2_Seg05 0.000000 0.000000 0.000000 0.000000 0.000000 0.000000 10.000000 
Rope2_Seg06 0.000000 0.000000 0.000000 0.000000 0.000000 0.000000 10.000000 
Rope2_Seg07 0.000000 0.000000 0.000000 0.000000 0.000000 0.000000 10.000000 
Rope2_Seg09 0.000000 0.000000 0.000000 0.000000 0.000000 0.000000 10.000000 
R_mid_hand01 0.000000 0.000000 0.000000 0.000000 0.000000 0.000000 10.000000 
R_mid_hand02 0.000000 0.000000 0.000000 0.000000 0.000000 0.000000 10.000000 
R_mid_hand03 0.000000 0.000000 0.000000 0.000000 0.000000 0.000000 10.000000 
spine02 0.000000 0.000000 0.000000 0.000000 0.000000 0.000000 10.000000 
spine03 0.000000 0.000000 0.000000 0.000000 0.000000 0.000000 10.000000 
pelvis 0.000000 0.000000 0.000000 0.000000 0.000000 0.000000 10.000000 
null_rope03_connect 0.000000 0.000000 0.000000 0.000000 0.000000 0.000000 10.000000 
null_rope04_connect 0.000000 0.000000 0.000000 0.000000 0.000000 0.000000 10.000000 
Rope3_Seg01 0.000000 0.000000 0.000000 0.000000 0.000000 0.000000 10.000000 
Rope3_Seg02 0.000000 0.000000 0.000000 0.000000 0.000000 0.000000 10.000000 
Rope3_Seg03 0.000000 0.000000 0.000000 0.000000 0.000000 0.000000 10.000000 
Rope3_Seg04 0.000000 0.000000 0.000000 0.000000 0.000000 0.000000 10.000000 
Rope3_Seg05 0.000000 0.000000 0.000000 0.000000 0.000000 0.000000 10.000000 
Rope3_Seg06 0.000000 0.000000 0.000000 0.000000 0.000000 0.000000 10.000000 
Rope3_Seg07 0.000000 0.000000 0.000000 0.000000 0.000000 0.000000 10.000000 
Rope3_Seg08 0.000000 0.000000 0.000000 0.000000 0.000000 0.000000 10.000000 
Rope3_Seg09 0.000000 0.000000 0.000000 0.000000 0.000000 0.000000 10.000000 
R_rear_hand01 0.000000 0.000000 0.000000 0.000000 0.000000 0.000000 10.000000 
R_rear_hand02 0.000000 0.000000 0.000000 0.000000 0.000000 0.000000 10.000000 
R_rear_hand03 0.000000 0.000000 0.000000 0.000000 0.000000 0.000000 10.000000 
Rope4_Seg01 0.000000 0.000000 0.000000 0.000000 0.000000 0.000000 10.000000 
Rope4_Seg02 0.000000 0.000000 0.000000 0.000000 0.000000 0.000000 10.000000 
Rope4_Seg03 0.000000 0.000000 0.000000 0.000000 0.000000 0.000000 10.000000 
Rope4_Seg04 0.000000 0.000000 0.000000 0.000000 0.000000 0.000000 10.000000 
Rope4_Seg05 0.000000 0.000000 0.000000 0.000000 0.000000 0.000000 10.000000 
Rope4_Seg06 0.000000 0.000000 0.000000 0.000000 0.000000 0.000000 10.000000 
Rope4_Seg07 0.000000 0.000000 0.000000 0.000000 0.000000 0.000000 10.000000 
Rope4_Seg08 0.000000 0.000000 0.000000 0.000000 0.000000 0.000000 10.000000 
Rope4_Seg09 0.000000 0.000000 0.000000 0.000000 0.000000 0.000000 10.000000 
L_rear_hand01 0.000000 0.000000 0.000000 0.000000 0.000000 0.000000 10.000000 
L_rear_hand02 0.000000 0.000000 0.000000 0.000000 0.000000 0.000000 10.000000 
L_rear_hand03 0.000000 0.000000 0.000000 0.000000 0.000000 0.000000 10.000000 
#Beginning of Data. Separated by tabs
#Fr	Tx	Ty	Tz	Rx	Ry	Rz	SF
[MASTER]
13 0.000000 0.000000 0.000000 0.001660 0.001660 0.001660 0.000000
14 0.000000 0.000000 0.000000 0.001660 0.001660 0.001660 0.000000
[root]
13 -28.080099 -39.581696 1488.543335 -83.171967 -14.238296 -94.342171 1489.334229
14 -29.684151 -42.899303 1492.379517 -82.798714 -14.770479 -94.556549 1493.291138
[chest]
13 -84.512650 -34.090519 0.000000 -2.122458 1.739244 -174.773254 91.129311
14 -84.512650 -34.090519 0.000000 -2.188025 1.877703 -174.935211 91.129311
[L_mid_tent01]
13 27.299152 22.179232 -249.918716 4.202878 11.838249 82.146568 252.381714
14 27.299156 22.179239 -249.918716 3.544903 14.906460 81.384346 252.381714
[R_mid_tent01]
13 23.228794 24.509907 226.238495 164.117096 -8.497721 77.196022 228.744751
14 23.228794 24.509907 226.238495 163.942459 -13.432130 78.217957 228.744751
[spine01]
13 -0.361383 -0.195265 0.000000 -0.000001 -0.000007 22.052340 0.410763
14 -0.361383 -0.195265 0.000000 -0.000001 -0.000007 22.052340 0.410763
[Bip01_Neck]
13 165.484543 71.581718 0.000119 176.643677 -1.657967 43.431911 180.302734
14 165.484543 71.581718 0.000119 176.643677 -1.657967 43.431911 180.302734
[L_humerus]
13 -13.983130 -135.272980 -120.471481 172.852081 1.267444 -150.085037 181.680161
14 -13.983130 -135.272980 -120.471481 171.182953 4.053182 -147.919968 181.680161
[R_humerus]
13 -13.983309 -135.273102 125.287651 -175.304214 -1.622318 -145.285187 184.909012
14 -13.983309 -135.273102 125.287651 -173.851379 -4.273034 -142.898163 184.909012
[weapon_bone]
13 235.964890 -300.705902 0.000000 0.000000 -89.951546 -128.212341 382.234833
14 235.964890 -300.705902 0.000000 0.000000 -89.951546 -128.212341 382.234833
[Bip01_Head]
13 213.648895 185.146088 19.126722 4.970873 4.892509 -43.884151 283.356232
14 213.667358 185.095200 19.784966 4.966612 3.845176 -43.891491 283.382111
[eye_left_bone]
13 -24.626970 125.451866 -64.772606 0.000000 -90.000000 -99.840431 143.318359
14 -24.626970 125.451866 -64.772606 0.000000 -90.000000 -99.840431 143.318359
[eye_right_bone]
13 -24.626970 125.451866 64.327362 0.000000 -89.965736 80.156380 143.117676
14 -24.626970 125.451866 64.327362 0.000000 -89.965736 80.156380 143.117676
[L_forearm]
13 322.776093 0.000000 -0.000119 0.000396 -0.002314 -109.419975 322.776093
14 322.776093 0.000000 -0.000119 0.000396 -0.002314 -109.419975 322.776093
[L_front_hand]
13 241.149185 -0.042021 -3.300071 -178.667953 -1.835447 -27.422350 241.171753
14 241.149185 -0.042021 -3.300071 -178.667953 -1.835447 -27.422350 241.171753
[L_weapon_bone]
13 156.183838 0.000000 0.000000 0.000014 0.000007 0.000001 156.183838
14 156.183838 0.000000 0.000000 0.000014 0.000007 0.000001 156.183838
[L_front_hand01_01]
13 86.095154 20.947098 -0.655860 -0.273295 -0.533469 64.985298 88.609184
14 86.095154 20.947098 -0.655860 -0.273650 -0.533287 65.061531 88.609184
[L_front_hand02_01]
13 86.935165 -11.437475 24.513514 140.772385 -54.262844 -45.183468 91.046425
14 86.935165 -11.437475 24.513514 140.858582 -54.305305 -45.287018 91.046425
[L_front_hand03_01]
13 86.637497 -14.123976 -20.424902 -141.183044 52.494118 -47.265888 90.126129
14 86.637497 -14.123976 -20.424902 -141.258987 52.537949 -47.363300 90.126129
[L_front_hand01_02]
13 71.020905 -0.000179 0.000030 0.000315 -0.002326 -105.414528 71.020905
14 71.020905 -0.000179 0.000030 0.000315 -0.002326 -105.409866 71.020905
[L_front_hand02_02]
13 71.020927 -0.000119 0.000060 0.000315 -0.002326 -105.414528 71.020927
14 71.020927 -0.000119 0.000060 0.000315 -0.002326 -105.409866 71.020927
[L_front_hand03_02]
13 71.020905 -0.000060 0.000060 0.000315 -0.002326 -105.414528 71.020905
14 71.020905 -0.000060 0.000060 0.000315 -0.002326 -105.409866 71.020905
[R_forearm]
13 322.776428 -0.000060 0.000030 0.202103 0.065158 -108.062805 322.776428
14 322.776428 -0.000060 0.000030 0.202103 0.065158 -108.062805 322.776428
[R_front_hand]
13 238.847015 -0.006795 2.210259 -2.635298 -10.645461 -26.312506 238.857239
14 238.847015 -0.006795 2.210259 -2.635298 -10.645461 -26.312506 238.857239
[R_weapon_bone]
13 155.664093 0.002503 -0.000030 0.003487 0.001180 -90.988930 155.664078
14 155.664093 0.002503 -0.000030 0.003487 0.001180 -90.988930 155.664078
[R_front_hand01_01]
13 87.624611 14.231146 22.918642 -139.406311 -53.422413 43.599293 91.683487
14 87.624611 14.231146 22.918642 -138.707092 -52.961746 42.720669 91.683487
[R_front_hand02_01]
13 89.356956 14.367283 -19.491137 140.210251 51.852013 46.267582 92.579636
14 89.356956 14.367283 -19.491137 139.537384 51.404167 45.405891 92.579636
[R_front_hand03_01]
13 87.286232 -22.307278 -0.143439 0.071981 -0.448622 -63.915909 90.091743
14 87.286232 -22.307278 -0.143439 0.065057 -0.451640 -63.223503 90.091743
[R_front_hand01_02]
13 71.020905 0.000060 0.000119 0.002323 -0.000334 106.381714 71.020905
14 71.020905 0.000060 0.000119 0.002323 -0.000334 106.381714 71.020905
[R_front_hand02_02]
13 71.020844 -0.000030 -0.000119 0.002323 -0.000334 106.381714 71.020836
14 71.020844 -0.000030 -0.000119 0.002323 -0.000334 106.381714 71.020836
[R_front_hand03_02]
13 71.020905 0.000000 0.000030 0.002323 -0.000334 106.381714 71.020905
14 71.020905 0.000000 0.000030 0.002323 -0.000334 106.381714 71.020905
[null_rope01_connect]
13 328.732483 0.000000 -0.000238 -104.185135 -78.654846 126.262657 328.732483
14 328.732483 0.000000 -0.000238 -114.197708 -76.987770 137.473083 328.732483
[Rope1_Seg01]
13 0.000000 0.000000 0.000000 -68.460136 53.121475 -79.044037 0.000000
14 0.000000 0.000000 0.000000 -85.496704 53.366962 -92.658867 0.000000
[Rope1_Seg02]
13 139.999863 -0.000179 0.000000 -3.295337 0.868778 3.811994 139.999863
14 139.999863 -0.000179 0.000000 -5.141720 0.265119 5.972911 139.999863
[Rope1_Seg03]
13 139.999924 0.000060 -0.000060 -3.981394 0.909620 5.450500 139.999924
14 139.999924 0.000060 -0.000060 -5.531459 -0.393796 8.758635 139.999924
[Rope1_Seg04]
13 139.999924 -0.000060 -0.000119 -5.540687 2.683286 7.514745 139.999924
14 139.999924 -0.000060 -0.000119 -8.035985 3.403406 12.451479 139.999924
[Rope1_Seg05]
13 139.999832 0.000119 -0.000060 -7.315760 4.082674 13.644767 139.999832
14 139.999832 0.000119 -0.000060 -3.792400 -9.293427 18.557831 139.999832
[Rope1_Seg06]
13 139.999954 0.000119 -0.000060 -2.371173 -20.237391 18.554804 139.999954
14 139.999954 0.000119 -0.000060 -2.408389 -25.122461 12.643084 139.999954
[Rope1_Seg07]
13 139.999985 0.000060 0.000000 -1.318113 -12.872204 8.674517 139.999985
14 139.999985 0.000060 0.000000 -1.605227 -10.027867 5.844867 139.999985
[Rope1_Seg09]
13 121.602913 0.000119 -0.000089 -89.793175 -1.359789 0.847147 121.602913
14 121.602913 0.000119 -0.000089 -89.793175 -1.359789 0.847147 121.602913
[L_mid_hand01]
13 103.859421 1.038730 8.195221 112.987694 -50.601242 -18.681463 104.187431
14 103.859421 1.038730 8.195221 115.405037 -54.702587 -21.718954 104.187431
[L_mid_hand02]
13 105.572853 -4.139662 -10.864139 -153.018738 36.866020 -49.082432 106.211075
14 105.572853 -4.139662 -10.864139 -156.173569 38.796780 -54.226383 106.211075
[L_mid_hand03]
13 104.641464 17.579376 -3.913581 -11.755007 14.733719 54.618237 106.179977
14 104.641464 17.579376 -3.913581 -10.557021 15.605448 59.191418 106.179977
[null_rope02_connect]
13 328.732849 0.000179 -0.000119 -112.849106 73.337479 37.622559 328.732849
14 328.732849 0.000179 -0.000119 -121.785568 69.076042 28.131544 328.732849
[Rope2_Seg01]
13 0.000095 0.000153 0.000051 168.558914 60.738018 -68.807953 0.000187
14 0.000095 0.000153 0.000055 -152.273026 56.703712 -40.300167 0.000188
[Rope2_Seg02]
13 139.999741 -0.000060 -0.000119 4.161919 -9.126705 -1.447703 139.999756
14 139.999741 -0.000060 -0.000119 -0.255135 -14.704960 6.086350 139.999756
[Rope2_Seg03]
13 140.000107 0.000030 0.000000 2.875696 -9.581711 -0.830164 140.000107
14 140.000107 0.000030 0.000000 -0.664050 -13.141586 5.990281 140.000107
[Rope2_Seg04]
13 139.999802 0.000000 -0.000060 1.863649 -8.387387 -0.774772 139.999802
14 139.999802 0.000000 -0.000060 -0.699149 -8.728406 5.145840 139.999802
[Rope2_Seg05]
13 139.999985 -0.000060 0.000119 0.895782 -6.925171 -0.201180 139.999985
14 139.999985 -0.000060 0.000119 0.039276 -7.894690 1.897736 139.999985
[Rope2_Seg06]
13 139.999893 -0.000030 -0.000119 0.342676 -9.568235 1.084713 139.999893
14 139.999893 -0.000030 -0.000119 -0.265884 -13.108220 0.032209 139.999893
[Rope2_Seg07]
13 139.999893 0.000060 -0.000060 -0.693188 -16.342928 2.854545 139.999893
14 139.999893 0.000060 -0.000060 -1.901986 -15.864388 0.186807 139.999893
[Rope2_Seg09]
13 121.338966 0.000089 -0.000060 33.793236 -1.359788 -0.847141 121.338966
14 121.338966 0.000089 -0.000060 33.793236 -1.359788 -0.847141 121.338966
[R_mid_hand01]
13 104.680779 11.144459 -10.335981 -37.204075 31.906813 37.576267 105.778534
14 104.680779 11.144459 -10.335981 -36.578453 32.644405 38.740585 105.778534
[R_mid_hand02]
13 104.070427 2.443552 8.231699 70.367462 -42.427391 14.067809 104.424065
14 104.070427 2.443552 8.231699 69.973358 -43.581707 14.639651 104.424065
[R_mid_hand03]
13 106.028137 -11.221827 -5.996406 -169.893616 12.226658 -47.211018 106.788818
14 106.028137 -11.221827 -5.996406 -170.161224 12.441350 -48.449898 106.788818
[spine02]
13 129.756927 0.001550 0.000119 0.360061 -4.044797 -12.915058 129.756927
14 129.756927 0.001550 0.000119 0.360061 -4.044797 -12.915058 129.756927
[spine03]
13 78.614052 0.081685 -4.899014 1.896495 3.831288 16.473045 78.766586
14 78.614052 0.081702 -4.899014 1.896495 3.831288 16.473045 78.766586
[pelvis]
13 169.435242 0.051022 0.000000 -0.060465 -0.180225 14.087930 169.435257
14 169.435242 0.051022 0.000000 -0.060465 -0.180225 14.087930 169.435257
[null_rope03_connect]
13 -1.257226 -2.466202 137.391083 -18.008486 -81.858208 82.843124 137.418976
14 -1.257226 -2.466202 137.391083 -17.569273 -81.520058 82.960411 137.418976
[null_rope04_connect]
13 -1.259640 -2.480268 -137.844437 -18.008486 -81.858208 82.843124 137.872513
14 -1.259640 -2.480268 -137.844437 -17.569273 -81.520058 82.960411 137.872513
[Rope3_Seg01]
13 -0.000010 0.000000 -0.000203 -127.705894 10.584939 -62.324192 0.000204
14 -0.000010 0.000000 -0.000220 -127.609085 11.358276 -62.525814 0.000221
[Rope3_Seg02]
13 139.999924 -0.000119 0.000060 1.280517 -5.821916 5.559755 139.999924
14 139.999924 -0.000119 0.000060 1.521535 -7.473439 3.223696 139.999924
[Rope3_Seg03]
13 139.999924 -0.000119 0.000119 1.211824 -8.453941 8.574577 139.999924
14 139.999924 -0.000119 0.000119 2.182828 -9.941789 4.684144 139.999924
[Rope3_Seg04]
13 139.999924 0.000119 0.000000 0.406775 -10.937942 11.219169 139.999924
14 139.999924 0.000119 0.000000 2.306596 -9.803720 5.749373 139.999924
[Rope3_Seg05]
13 139.999924 -0.000238 0.000060 -0.965076 -12.242785 14.222877 139.999924
14 139.999924 -0.000238 0.000060 3.606979 -15.928840 8.950552 139.999924
[Rope3_Seg06]
13 139.999893 -0.000119 -0.000060 -5.748843 -16.496469 23.305243 139.999893
14 139.999893 -0.000119 -0.000060 4.426742 -19.727695 12.326265 139.999893
[Rope3_Seg07]
13 139.999771 0.000060 -0.000119 -6.648572 -13.724757 17.512295 139.999771
14 139.999771 0.000060 -0.000119 3.113948 -10.855518 8.605581 139.999771
[Rope3_Seg08]
13 139.999985 -0.000060 0.000000 -2.893461 -6.982965 7.240697 139.999985
14 139.999985 -0.000060 0.000000 1.919708 -5.359347 4.865129 139.999985
[Rope3_Seg09]
13 90.185997 -0.000179 -0.000060 89.793228 -1.359877 -0.847183 90.185997
14 90.185997 -0.000179 -0.000060 89.793228 -1.359877 -0.847183 90.185997
[R_rear_hand01]
13 103.366196 -6.073594 -10.757982 -165.129333 19.906294 -41.459843 104.101845
14 103.366196 -6.073594 -10.757982 -166.165070 20.624775 -44.436913 104.101845
[R_rear_hand02]
13 100.509819 12.039542 -7.992327 -30.361923 25.330694 39.162529 101.543350
14 100.509819 12.039542 -7.992327 -29.134800 26.762835 41.953510 101.543350
[R_rear_hand03]
13 101.539970 5.215704 5.435467 82.326164 -42.112499 9.027012 101.819031
14 101.539970 5.215704 5.435467 81.948608 -44.972134 9.574180 101.819031
[Rope4_Seg01]
13 0.000010 0.000038 -0.000114 49.825020 36.012157 -106.071365 0.000121
14 0.000010 0.000038 -0.000114 40.729862 20.248091 -126.513863 0.000121
[Rope4_Seg02]
13 139.999985 0.000060 0.000119 1.712120 14.456714 -10.125878 139.999985
14 139.999985 0.000060 0.000119 -4.029156 22.210611 -9.335312 139.999985
[Rope4_Seg03]
13 139.999924 0.000000 -0.000238 1.660763 5.671359 -3.814259 139.999924
14 139.999924 0.000000 -0.000238 0.853160 15.392620 -3.452024 139.999924
[Rope4_Seg04]
13 139.999985 0.000000 0.000119 0.464656 1.754388 -0.451235 139.999985
14 139.999985 0.000000 0.000119 1.226747 8.674620 0.064931 139.999985
[Rope4_Seg05]
13 139.999802 -0.000060 -0.000119 1.391434 2.721678 -2.741083 139.999802
14 139.999802 -0.000060 -0.000119 2.557680 4.335885 -5.116175 139.999802
[Rope4_Seg06]
13 139.999924 0.000000 0.000060 2.888371 4.725828 -5.962403 139.999924
14 139.999924 0.000000 0.000060 4.645183 3.072893 -11.987880 139.999924
[Rope4_Seg07]
13 139.999802 0.000000 0.000000 6.147587 8.840454 -13.331061 139.999802
14 139.999802 0.000000 0.000000 4.936669 1.961354 -17.003513 139.999802
[Rope4_Seg08]
13 139.999924 0.000000 0.000119 4.127711 6.158367 -12.065928 139.999924
14 139.999924 0.000000 0.000119 0.601492 1.229494 -9.767196 139.999924
[Rope4_Seg09]
13 90.185791 0.000060 0.000060 -135.617828 2.228885 0.850567 90.185791
14 90.185791 0.000060 0.000060 -135.617828 2.228885 0.850567 90.185791
[L_rear_hand01]
13 101.696655 -8.392275 -7.654577 -23.837053 -31.497862 127.196869 102.329041
14 101.696655 -8.392275 -7.654577 -21.399742 -33.105404 122.636429 102.329041
[L_rear_hand02]
13 102.726799 -1.568258 5.773216 79.940979 55.428291 167.825531 102.900848
14 102.726799 -1.568258 5.773216 78.723869 59.531788 166.383698 102.900848
[L_rear_hand03]
13 104.552910 9.721220 -10.420293 -170.300186 -22.788523 -124.406990 105.519653
14 104.552910 9.721220 -10.420293 -172.062347 -23.429159 -119.922234 105.519653
